<svg xmlns="http://www.w3.org/2000/svg" width="150" height="23" viewBox="0 0 150 23" fill="none">
  <g clip-path="url(#clip0_79_3441)">
    <path d="M7.97297 10.4176H11.0135L9.45946 5.34412L7.97297 10.4176ZM68.5811 9.67353L72.027 0.135294H80.1351V17.6559H74.7973V6.62941L70.8108 17.7235H66.2838L62.5 7.30588V11.9735C62.5 14.2059 61.7568 15.8294 60.3378 16.7765C58.9189 17.7235 56.8919 18.2647 54.5946 18.2647C52.1622 18.2647 50.4054 17.7912 48.9865 16.8441C47.5 15.8971 46.8243 14.3412 46.8243 12.2441V5.88529H42.6351V17.6559H37.1622V5.88529H28.9865C28.2432 4.6 27.027 4.32941 25.5405 4.32941C22.7703 4.32941 21.3514 6.49412 21.3514 9.13235C21.3514 11.7706 22.8378 13.9353 25.5405 13.9353C26.8243 13.9353 28.1081 13.5294 28.9865 12.3118H34.5946C33.9865 16.1 30.2027 18.2647 25.473 18.2647C22.4324 18.2647 19.7297 16.9794 17.973 14.8824L18.9189 17.6559H13.0405L12.027 14.2059H6.95946L5.81081 17.6559H0L5.81081 0.202941H13.0405L15.8784 8.52353C16.2162 3.78824 20.4054 0 25.5405 0C28.7162 0 31.3513 0.947059 32.9054 2.63824V0.202941H52.5V11.1618C52.5 12.8529 53.7838 13.2588 54.6622 13.2588C55.5405 13.2588 56.9595 12.8529 56.9595 11.1618V0.202941H65.1351L68.5811 9.67353ZM85.5405 0.135294H92.8378C94.1892 0.135294 95.3378 0.338235 96.3513 0.811765C97.3649 1.28529 98.1757 1.89412 98.7838 2.70588C99.3919 3.51765 99.8649 4.46471 100.203 5.54706C100.541 6.62941 100.676 7.77941 100.676 8.99706C100.676 10.2147 100.541 11.3647 100.203 12.4471C99.8649 13.5294 99.4594 14.4765 98.7838 15.2206C98.1757 16.0324 97.3649 16.6412 96.3513 17.1147C95.3378 17.5882 94.1892 17.7912 92.8378 17.7912H85.5405V0.135294ZM88.6486 15.2882H91.6892C92.9054 15.2882 93.8513 15.1529 94.6622 14.8147C95.4054 14.4765 96.0135 14.0706 96.4865 13.4618C96.8919 12.9206 97.2297 12.2441 97.3649 11.4324C97.5 10.6882 97.5676 9.80882 97.5676 8.92941C97.5676 8.05 97.5 7.23823 97.3649 6.42647C97.2297 5.68235 96.8919 5.00588 96.4865 4.39706C96.0811 3.85588 95.473 3.38235 94.6622 3.04412C93.8513 2.70588 92.9054 2.70588 91.6892 2.70588H88.6486V15.2882ZM101.892 2.84118V0.135294H104.73V2.77353H101.892V2.84118ZM101.892 17.8588V5.07353H104.73V17.8588H101.892ZM118.581 17.1824C118.581 19.1441 118.041 20.5647 116.959 21.5118C115.878 22.4588 114.324 22.9324 112.297 22.9324C111.622 22.9324 111.014 22.8647 110.338 22.7294C109.662 22.5941 109.122 22.3912 108.581 22.0529C108.041 21.7147 107.568 21.3088 107.23 20.8353C106.892 20.2941 106.622 19.6853 106.554 18.9412H109.392C109.459 19.3471 109.595 19.6853 109.797 19.8882C110 20.1588 110.203 20.3618 110.473 20.4971C110.743 20.6324 111.014 20.7 111.351 20.7676C111.689 20.8353 112.027 20.8353 112.365 20.8353C113.514 20.8353 114.324 20.5647 114.865 20.0235C115.405 19.4824 115.676 18.6706 115.676 17.5882V15.5588H115.608C115.203 16.2353 114.662 16.8441 113.986 17.1824C113.311 17.5882 112.568 17.7912 111.757 17.7912C110.743 17.7912 109.865 17.5882 109.122 17.25C108.378 16.9118 107.838 16.4382 107.365 15.7618C106.892 15.1529 106.554 14.4088 106.351 13.5971C106.149 12.7853 106.014 11.9059 106.014 11.0265C106.014 10.1471 106.149 9.33529 106.419 8.59118C106.689 7.84706 107.027 7.10294 107.568 6.56176C108.041 5.95294 108.649 5.47941 109.392 5.14118C110.135 4.80294 110.946 4.6 111.824 4.6C112.635 4.6 113.378 4.80294 114.054 5.14118C114.73 5.47941 115.27 6.02059 115.608 6.76471H115.676V5.07353H118.514V17.1824H118.581ZM112.297 15.6265C112.905 15.6265 113.446 15.4912 113.919 15.2206C114.324 14.95 114.73 14.6118 115 14.2059C115.27 13.8 115.473 13.3265 115.608 12.7853C115.743 12.2441 115.811 11.7029 115.811 11.1618C115.811 10.6206 115.743 10.0794 115.608 9.60588C115.473 9.06471 115.27 8.65882 115 8.25294C114.73 7.84706 114.392 7.57647 113.919 7.30588C113.514 7.10294 112.973 6.96765 112.365 6.96765C111.757 6.96765 111.216 7.10294 110.811 7.37353C110.405 7.64412 110.068 7.98235 109.797 8.38824C109.527 8.79412 109.324 9.26765 109.257 9.80882C109.122 10.35 109.054 10.8912 109.054 11.4324C109.054 11.9735 109.122 12.4471 109.257 12.9882C109.392 13.4618 109.595 13.9353 109.865 14.3412C110.135 14.7471 110.473 15.0853 110.878 15.2882C111.216 15.4912 111.689 15.6265 112.297 15.6265ZM120.27 2.84118V0.135294H123.108V2.77353H120.27V2.84118ZM120.27 17.8588V5.07353H123.108V17.8588H120.27ZM124.459 5.07353H126.554V1.21765H129.392V5.07353H131.959V7.17059H129.392V14.0029C129.392 14.2735 129.392 14.5441 129.459 14.7471C129.459 14.95 129.527 15.1529 129.662 15.2882C129.73 15.4235 129.865 15.5588 130.068 15.6265C130.27 15.6941 130.473 15.7618 130.811 15.7618H131.419C131.622 15.7618 131.824 15.6941 132.027 15.6941V17.8588C131.689 17.8588 131.419 17.9265 131.081 17.9265C130.811 17.9265 130.473 17.9941 130.135 17.9941C129.392 17.9941 128.784 17.9265 128.378 17.7912C127.905 17.6559 127.568 17.4529 127.297 17.1824C127.027 16.9118 126.892 16.5735 126.757 16.1676C126.689 15.7618 126.622 15.2882 126.622 14.7471V7.17059H124.527V5.07353H124.459ZM144.189 14.95C144.189 15.2882 144.257 15.5588 144.324 15.6941C144.392 15.8294 144.595 15.8971 144.865 15.8971H145.135C145.27 15.8971 145.405 15.8971 145.541 15.8294V17.7912C145.473 17.7912 145.338 17.8588 145.135 17.9265C145 17.9941 144.797 17.9941 144.662 18.0618C144.527 18.0618 144.324 18.1294 144.189 18.1294H143.784C143.176 18.1294 142.703 17.9941 142.365 17.7912C141.959 17.5882 141.757 17.1824 141.622 16.5735C141.081 17.1147 140.405 17.5206 139.527 17.7912C138.716 18.0618 137.905 18.1294 137.162 18.1294C136.554 18.1294 136.014 18.0618 135.541 17.9265C135 17.7912 134.527 17.5206 134.122 17.25C133.716 16.9794 133.378 16.5735 133.176 16.1C132.905 15.6265 132.838 15.0853 132.838 14.4765C132.838 13.6647 132.973 13.0559 133.243 12.5147C133.514 12.0412 133.919 11.6353 134.392 11.3647C134.865 11.0941 135.405 10.8912 135.946 10.7559C136.554 10.6206 137.095 10.5529 137.703 10.4853C138.243 10.4176 138.716 10.2824 139.189 10.2824C139.662 10.2147 140.068 10.1471 140.405 10.0794C140.743 10.0118 141.014 9.80882 141.216 9.60588C141.419 9.40294 141.554 9.06471 141.554 8.65882C141.554 8.32059 141.486 7.98235 141.284 7.77941C141.081 7.57647 140.878 7.37353 140.608 7.23823C140.338 7.10294 140.068 7.03529 139.73 6.96765C139.392 6.9 139.122 6.9 138.851 6.9C138.041 6.9 137.432 7.03529 136.892 7.37353C136.351 7.71176 136.081 8.18529 136.014 8.92941H133.176C133.243 8.11765 133.446 7.44118 133.784 6.9C134.122 6.35882 134.595 5.95294 135.135 5.61471C135.676 5.27647 136.284 5.07353 136.959 4.93824C137.635 4.80294 138.311 4.73529 139.054 4.73529C139.662 4.73529 140.27 4.80294 140.878 4.93824C141.486 5.07353 142.027 5.27647 142.5 5.54706C142.973 5.81765 143.378 6.22353 143.649 6.69706C143.919 7.17059 144.122 7.71176 144.122 8.38824V14.95H144.189ZM141.351 11.4324C140.946 11.7029 140.405 11.9059 139.797 11.9059C139.189 11.9735 138.514 12.0412 137.905 12.1765C137.635 12.2441 137.297 12.3118 137.027 12.3794C136.757 12.4471 136.486 12.5824 136.284 12.7176C136.081 12.8529 135.878 13.0559 135.811 13.3265C135.676 13.5971 135.608 13.8676 135.608 14.2735C135.608 14.6118 135.676 14.8824 135.878 15.0853C136.081 15.2882 136.284 15.4912 136.554 15.6265C136.824 15.7618 137.095 15.8294 137.365 15.8971C137.635 15.9647 137.973 15.9647 138.176 15.9647C138.514 15.9647 138.851 15.8971 139.189 15.8294C139.527 15.7618 139.865 15.6265 140.203 15.4235C140.541 15.2206 140.811 14.95 141.014 14.6794C141.216 14.3412 141.351 14.0029 141.351 13.5294V11.4324ZM146.824 17.8588V0.135294H149.662V17.7912H146.824V17.8588Z" fill="#D93C31"></path>
  </g>
  <defs>
    <clipPath id="clip0_79_3441">
      <rect width="150" height="23" fill="white"></rect>
    </clipPath>
  </defs>
</svg>
