<svg xmlns="http://www.w3.org/2000/svg" version="1.1" xmlns:xlink="http://www.w3.org/1999/xlink" xmlns:svgjs="http://svgjs.com/svgjs" width="1000" height="1000"><rect width="1000" height="1000" rx="200" ry="200" fill="#555555"></rect><g transform="matrix(6.896551724137931,0,0,6.896551724137931,100,100)"><svg xmlns="http://www.w3.org/2000/svg" version="1.1" xmlns:xlink="http://www.w3.org/1999/xlink" xmlns:svgjs="http://svgjs.com/svgjs" width="116" height="116"><svg width="116" height="116" viewBox="0 0 116 116" fill="none" xmlns="http://www.w3.org/2000/svg">
<circle cx="58" cy="58" r="58" fill="white"></circle>
<path d="M40.625 74.6562L60 45.5312C60.3125 45.0521 60.625 44.7083 60.9375 44.5C61.2708 44.2917 61.5938 44.1875 61.9062 44.1875C62.3021 44.1875 62.625 44.3542 62.875 44.6875C63.1458 45 63.2812 45.3958 63.2812 45.875V76.8125C63.2812 77.4167 63.2083 77.9375 63.0625 78.375C62.9167 78.7917 62.5417 79 61.9375 79C61.4167 79 61.0625 78.7917 60.875 78.375C60.7083 77.9375 60.625 77.4167 60.625 76.8125V49.0625L42.1562 76.3125C41.6562 77.0208 41.1458 77.375 40.625 77.375C40.0625 77.375 39.5521 77.0208 39.0938 76.3125L20.625 49.0625V76.8125C20.625 77.4167 20.5312 77.9375 20.3438 78.375C20.1771 78.7917 19.8333 79 19.3125 79C18.7083 79 18.3333 78.7917 18.1875 78.375C18.0417 77.9375 17.9688 77.4167 17.9688 76.8125V45.875C17.9688 45.3958 18.0938 45 18.3438 44.6875C18.6146 44.3542 18.9479 44.1875 19.3438 44.1875C19.6354 44.1875 19.9375 44.2917 20.25 44.5C20.5833 44.7083 20.9167 45.0521 21.25 45.5312L40.625 74.6562ZM81.6025 76.1875L99.4463 45.75C99.6754 45.3542 99.915 45.0104 100.165 44.7188C100.415 44.4271 100.686 44.2604 100.978 44.2188C101.373 44.2188 101.655 44.3438 101.821 44.5938C101.988 44.8438 102.071 45.0833 102.071 45.3125C102.071 45.5417 101.998 45.7917 101.853 46.0625C101.728 46.3125 101.582 46.5729 101.415 46.8438L83.1963 77.9062C82.9671 78.2812 82.7067 78.5625 82.415 78.75C82.1442 78.9167 81.8629 79 81.5713 79C80.9463 79 80.415 78.6354 79.9775 77.9062L61.6963 46.8438C61.5296 46.5521 61.3838 46.2812 61.2588 46.0312C61.1546 45.7604 61.1025 45.5 61.1025 45.25C61.1025 45.0833 61.1858 44.875 61.3525 44.625C61.5192 44.3542 61.7796 44.2188 62.1338 44.2188C62.4879 44.2604 62.7796 44.4271 63.0088 44.7188C63.2588 45.0104 63.4983 45.3542 63.7275 45.75L81.6025 76.1875Z" fill="black"></path>
</svg></svg></g></svg>